<svg width="24" height="24" viewBox="0 0 24 24" fill="none" xmlns="http://www.w3.org/2000/svg">
<g id="icons8-discord (3) 2">
<path id="Vector" d="M19.98 5.16939C18.0693 3.63189 15.0468 3.37126 14.9175 3.36189C14.7168 3.34501 14.5256 3.45751 14.4431 3.64314C14.4356 3.65439 14.37 3.80626 14.2968 4.04251C15.5606 4.25626 17.1131 4.68564 18.5175 5.55751C18.7425 5.69626 18.8118 5.99251 18.6731 6.21751C18.5812 6.36564 18.4256 6.44626 18.2643 6.44626C18.1781 6.44626 18.09 6.42189 18.0112 6.37314C15.5962 4.87501 12.5812 4.80001 12 4.80001C11.4187 4.80001 8.40184 4.87501 5.98871 6.37314C5.76371 6.51376 5.46746 6.44439 5.32871 6.21939C5.18809 5.99251 5.25746 5.69814 5.48246 5.55751C6.88684 4.68751 8.43934 4.25626 9.70309 4.04439C9.62996 3.80626 9.56434 3.65626 9.55871 3.64314C9.47434 3.45751 9.28496 3.34126 9.08246 3.36189C8.95309 3.37126 5.93059 3.63189 3.99371 5.19001C2.98309 6.12564 0.959961 11.5931 0.959961 16.32C0.959961 16.4044 0.982461 16.485 1.02371 16.5581C2.41871 19.0106 6.22684 19.6519 7.09496 19.68C7.09871 19.68 7.10434 19.68 7.10996 19.68C7.26371 19.68 7.40809 19.6069 7.49809 19.4831L8.37559 18.2756C6.00746 17.6644 4.79809 16.6256 4.72871 16.5638C4.52996 16.3894 4.51121 16.0856 4.68746 15.8869C4.86184 15.6881 5.16559 15.6694 5.36434 15.8438C5.39246 15.87 7.61996 17.76 12 17.76C16.3875 17.76 18.615 15.8625 18.6375 15.8438C18.8362 15.6713 19.1381 15.6881 19.3143 15.8888C19.4887 16.0875 19.47 16.3894 19.2712 16.5638C19.2018 16.6256 17.9925 17.6644 15.6243 18.2756L16.5018 19.4831C16.5918 19.6069 16.7362 19.68 16.89 19.68C16.8956 19.68 16.9012 19.68 16.905 19.68C17.7731 19.6519 21.5812 19.0106 22.9762 16.5581C23.0175 16.485 23.04 16.4044 23.04 16.32C23.04 11.5931 21.0168 6.12564 19.98 5.16939ZM8.87996 14.4C7.95184 14.4 7.19996 13.5413 7.19996 12.48C7.19996 11.4188 7.95184 10.56 8.87996 10.56C9.80809 10.56 10.56 11.4188 10.56 12.48C10.56 13.5413 9.80809 14.4 8.87996 14.4ZM15.12 14.4C14.1918 14.4 13.44 13.5413 13.44 12.48C13.44 11.4188 14.1918 10.56 15.12 10.56C16.0481 10.56 16.8 11.4188 16.8 12.48C16.8 13.5413 16.0481 14.4 15.12 14.4Z" fill="#EDDFEB" fill-opacity="0.7"/>
</g>
</svg>
