<svg width="25" height="25" viewBox="0 0 25 25" fill="none" xmlns="http://www.w3.org/2000/svg">
<g id="icons8-telegram 1">
<path id="Vector" d="M12.5 22.9167C18.2529 22.9167 22.9166 18.253 22.9166 12.5C22.9166 6.74703 18.2529 2.08333 12.5 2.08333C6.74701 2.08333 2.08331 6.74703 2.08331 12.5C2.08331 18.253 6.74701 22.9167 12.5 22.9167Z" fill="#29B6F6"/>
<path id="Vector_2" d="M17.6823 7.81251L15.7312 17.774C15.7312 17.774 15.6474 18.2292 15.0828 18.2292C14.7828 18.2292 14.6281 18.0865 14.6281 18.0865L10.4021 14.5797L8.33435 13.5375L5.68071 12.8318C5.68071 12.8318 5.20831 12.6953 5.20831 12.3047C5.20831 11.9792 5.69425 11.824 5.69425 11.824L16.7963 7.41355C16.7963 7.41355 17.1354 7.29115 17.3828 7.29167C17.5349 7.29167 17.7083 7.35678 17.7083 7.55209C17.7083 7.6823 17.6823 7.81251 17.6823 7.81251Z" fill="white"/>
<path id="Vector_3" d="M11.9792 15.888L10.1948 17.6453C10.1948 17.6453 10.1172 17.7052 10.0135 17.7078C9.9776 17.7089 9.93906 17.7031 9.89948 17.6854L10.4016 14.5786L11.9792 15.888Z" fill="#B0BEC5"/>
<path id="Vector_4" d="M15.5713 9.47709C15.4833 9.3625 15.3208 9.34167 15.2062 9.42865L8.33331 13.5417C8.33331 13.5417 9.43019 16.6104 9.59738 17.1417C9.76508 17.6734 9.89946 17.6859 9.89946 17.6859L10.4015 14.5792L15.5224 9.84167C15.637 9.75469 15.6583 9.59167 15.5713 9.47709Z" fill="#CFD8DC"/>
</g>
</svg>
