<svg width="1160" height="1" viewBox="0 0 1160 1" fill="none" xmlns="http://www.w3.org/2000/svg">
<mask id="path-1-inside-1_44_1204" fill="white">
<path d="M0 0H1160V1H0V0Z"/>
</mask>
<path d="M0 1.5H2.5V0.5H0V1.5ZM7.5 1.5H12.5V0.5H7.5V1.5ZM17.5 1.5H22.5V0.5H17.5V1.5ZM27.5 1.5H32.5V0.5H27.5V1.5ZM37.5 1.5H42.5V0.5H37.5V1.5ZM47.5 1.5H52.5V0.5H47.5V1.5ZM57.5 1.5H62.5V0.5H57.5V1.5ZM67.5 1.5H72.5V0.5H67.5V1.5ZM77.5 1.5H82.5V0.5H77.5V1.5ZM87.5 1.5H92.5V0.5H87.5V1.5ZM97.5 1.5H102.5V0.5H97.5V1.5ZM107.5 1.5H112.5V0.5H107.5V1.5ZM117.5 1.5H122.5V0.5H117.5V1.5ZM127.5 1.5H132.5V0.5H127.5V1.5ZM137.5 1.5H142.5V0.5H137.5V1.5ZM147.5 1.5H152.5V0.5H147.5V1.5ZM157.5 1.5H162.5V0.5H157.5V1.5ZM167.5 1.5H172.5V0.5H167.5V1.5ZM177.5 1.5H182.5V0.5H177.5V1.5ZM187.5 1.5H192.5V0.5H187.5V1.5ZM197.5 1.5H202.5V0.5H197.5V1.5ZM207.5 1.5H212.5V0.5H207.5V1.5ZM217.5 1.5H222.5V0.5H217.5V1.5ZM227.5 1.5H232.5V0.5H227.5V1.5ZM237.5 1.5H242.5V0.5H237.5V1.5ZM247.5 1.5H252.5V0.5H247.5V1.5ZM257.5 1.5H262.5V0.5H257.5V1.5ZM267.5 1.5H272.5V0.5H267.5V1.5ZM277.5 1.5H282.5V0.5H277.5V1.5ZM287.5 1.5H292.5V0.5H287.5V1.5ZM297.5 1.5H302.5V0.5H297.5V1.5ZM307.5 1.5H312.5V0.5H307.5V1.5ZM317.5 1.5H322.5V0.5H317.5V1.5ZM327.5 1.5H332.5V0.5H327.5V1.5ZM337.5 1.5H342.5V0.5H337.5V1.5ZM347.5 1.5H352.5V0.5H347.5V1.5ZM357.5 1.5H362.5V0.5H357.5V1.5ZM367.5 1.5H372.5V0.5H367.5V1.5ZM377.5 1.5H382.5V0.5H377.5V1.5ZM387.5 1.5H392.5V0.5H387.5V1.5ZM397.5 1.5H402.5V0.5H397.5V1.5ZM407.5 1.5H412.5V0.5H407.5V1.5ZM417.5 1.5H422.5V0.5H417.5V1.5ZM427.5 1.5H432.5V0.5H427.5V1.5ZM437.5 1.5H442.5V0.5H437.5V1.5ZM447.5 1.5H452.5V0.5H447.5V1.5ZM457.5 1.5H462.5V0.5H457.5V1.5ZM467.5 1.5H472.5V0.5H467.5V1.5ZM477.5 1.5H482.5V0.5H477.5V1.5ZM487.5 1.5H492.5V0.5H487.5V1.5ZM497.5 1.5H502.5V0.5H497.5V1.5ZM507.5 1.5H512.5V0.5H507.5V1.5ZM517.5 1.5H522.5V0.5H517.5V1.5ZM527.5 1.5H532.5V0.5H527.5V1.5ZM537.5 1.5H542.5V0.5H537.5V1.5ZM547.5 1.5H552.5V0.5H547.5V1.5ZM557.5 1.5H562.5V0.5H557.5V1.5ZM567.5 1.5H572.5V0.5H567.5V1.5ZM577.5 1.5H582.5V0.5H577.5V1.5ZM587.5 1.5H592.5V0.5H587.5V1.5ZM597.5 1.5H602.5V0.5H597.5V1.5ZM607.5 1.5H612.5V0.5H607.5V1.5ZM617.5 1.5H622.5V0.5H617.5V1.5ZM627.5 1.5H632.5V0.5H627.5V1.5ZM637.5 1.5H642.5V0.5H637.5V1.5ZM647.5 1.5H652.5V0.5H647.5V1.5ZM657.5 1.5H662.5V0.5H657.5V1.5ZM667.5 1.5H672.5V0.5H667.5V1.5ZM677.5 1.5H682.5V0.5H677.5V1.5ZM687.5 1.5H692.5V0.5H687.5V1.5ZM697.5 1.5H702.5V0.5H697.5V1.5ZM707.5 1.5H712.5V0.5H707.5V1.5ZM717.5 1.5H722.5V0.5H717.5V1.5ZM727.5 1.5H732.5V0.5H727.5V1.5ZM737.5 1.5H742.5V0.5H737.5V1.5ZM747.5 1.5H752.5V0.5H747.5V1.5ZM757.5 1.5H762.5V0.5H757.5V1.5ZM767.5 1.5H772.5V0.5H767.5V1.5ZM777.5 1.5H782.5V0.5H777.5V1.5ZM787.5 1.5H792.5V0.5H787.5V1.5ZM797.5 1.5H802.5V0.5H797.5V1.5ZM807.5 1.5H812.5V0.5H807.5V1.5ZM817.5 1.5H822.5V0.5H817.5V1.5ZM827.5 1.5H832.5V0.5H827.5V1.5ZM837.5 1.5H842.5V0.5H837.5V1.5ZM847.5 1.5H852.5V0.5H847.5V1.5ZM857.5 1.5H862.5V0.5H857.5V1.5ZM867.5 1.5H872.5V0.5H867.5V1.5ZM877.5 1.5H882.5V0.5H877.5V1.5ZM887.5 1.5H892.5V0.5H887.5V1.5ZM897.5 1.5H902.5V0.5H897.5V1.5ZM907.5 1.5H912.5V0.5H907.5V1.5ZM917.5 1.5H922.5V0.5H917.5V1.5ZM927.5 1.5H932.5V0.5H927.5V1.5ZM937.5 1.5H942.5V0.5H937.5V1.5ZM947.5 1.5H952.5V0.5H947.5V1.5ZM957.5 1.5H962.5V0.5H957.5V1.5ZM967.5 1.5H972.5V0.5H967.5V1.5ZM977.5 1.5H982.5V0.5H977.5V1.5ZM987.5 1.5H992.5V0.5H987.5V1.5ZM997.5 1.5H1002.5V0.5H997.5V1.5ZM1007.5 1.5H1012.5V0.5H1007.5V1.5ZM1017.5 1.5H1022.5V0.5H1017.5V1.5ZM1027.5 1.5H1032.5V0.5H1027.5V1.5ZM1037.5 1.5H1042.5V0.5H1037.5V1.5ZM1047.5 1.5H1052.5V0.5H1047.5V1.5ZM1057.5 1.5H1062.5V0.5H1057.5V1.5ZM1067.5 1.5H1072.5V0.5H1067.5V1.5ZM1077.5 1.5H1082.5V0.5H1077.5V1.5ZM1087.5 1.5H1092.5V0.5H1087.5V1.5ZM1097.5 1.5H1102.5V0.5H1097.5V1.5ZM1107.5 1.5H1112.5V0.5H1107.5V1.5ZM1117.5 1.5H1122.5V0.5H1117.5V1.5ZM1127.5 1.5H1132.5V0.5H1127.5V1.5ZM1137.5 1.5H1142.5V0.5H1137.5V1.5ZM1147.5 1.5H1152.5V0.5H1147.5V1.5ZM1157.5 1.5H1160V0.5H1157.5V1.5ZM0 2H2.5V0H0V2ZM7.5 2H12.5V0H7.5V2ZM17.5 2H22.5V0H17.5V2ZM27.5 2H32.5V0H27.5V2ZM37.5 2H42.5V0H37.5V2ZM47.5 2H52.5V0H47.5V2ZM57.5 2H62.5V0H57.5V2ZM67.5 2H72.5V0H67.5V2ZM77.5 2H82.5V0H77.5V2ZM87.5 2H92.5V0H87.5V2ZM97.5 2H102.5V0H97.5V2ZM107.5 2H112.5V0H107.5V2ZM117.5 2H122.5V0H117.5V2ZM127.5 2H132.5V0H127.5V2ZM137.5 2H142.5V0H137.5V2ZM147.5 2H152.5V0H147.5V2ZM157.5 2H162.5V0H157.5V2ZM167.5 2H172.5V0H167.5V2ZM177.5 2H182.5V0H177.5V2ZM187.5 2H192.5V0H187.5V2ZM197.5 2H202.5V0H197.5V2ZM207.5 2H212.5V0H207.5V2ZM217.5 2H222.5V0H217.5V2ZM227.5 2H232.5V0H227.5V2ZM237.5 2H242.5V0H237.5V2ZM247.5 2H252.5V0H247.5V2ZM257.5 2H262.5V0H257.5V2ZM267.5 2H272.5V0H267.5V2ZM277.5 2H282.5V0H277.5V2ZM287.5 2H292.5V0H287.5V2ZM297.5 2H302.5V0H297.5V2ZM307.5 2H312.5V0H307.5V2ZM317.5 2H322.5V0H317.5V2ZM327.5 2H332.5V0H327.5V2ZM337.5 2H342.5V0H337.5V2ZM347.5 2H352.5V0H347.5V2ZM357.5 2H362.5V0H357.5V2ZM367.5 2H372.5V0H367.5V2ZM377.5 2H382.5V0H377.5V2ZM387.5 2H392.5V0H387.5V2ZM397.5 2H402.5V0H397.5V2ZM407.5 2H412.5V0H407.5V2ZM417.5 2H422.5V0H417.5V2ZM427.5 2H432.5V0H427.5V2ZM437.5 2H442.5V0H437.5V2ZM447.5 2H452.5V0H447.5V2ZM457.5 2H462.5V0H457.5V2ZM467.5 2H472.5V0H467.5V2ZM477.5 2H482.5V0H477.5V2ZM487.5 2H492.5V0H487.5V2ZM497.5 2H502.5V0H497.5V2ZM507.5 2H512.5V0H507.5V2ZM517.5 2H522.5V0H517.5V2ZM527.5 2H532.5V0H527.5V2ZM537.5 2H542.5V0H537.5V2ZM547.5 2H552.5V0H547.5V2ZM557.5 2H562.5V0H557.5V2ZM567.5 2H572.5V0H567.5V2ZM577.5 2H582.5V0H577.5V2ZM587.5 2H592.5V0H587.5V2ZM597.5 2H602.5V0H597.5V2ZM607.5 2H612.5V0H607.5V2ZM617.5 2H622.5V0H617.5V2ZM627.5 2H632.5V0H627.5V2ZM637.5 2H642.5V0H637.5V2ZM647.5 2H652.5V0H647.5V2ZM657.5 2H662.5V0H657.5V2ZM667.5 2H672.5V0H667.5V2ZM677.5 2H682.5V0H677.5V2ZM687.5 2H692.5V0H687.5V2ZM697.5 2H702.5V0H697.5V2ZM707.5 2H712.5V0H707.5V2ZM717.5 2H722.5V0H717.5V2ZM727.5 2H732.5V0H727.5V2ZM737.5 2H742.5V0H737.5V2ZM747.5 2H752.5V0H747.5V2ZM757.5 2H762.5V0H757.5V2ZM767.5 2H772.5V0H767.5V2ZM777.5 2H782.5V0H777.5V2ZM787.5 2H792.5V0H787.5V2ZM797.5 2H802.5V0H797.5V2ZM807.5 2H812.5V0H807.5V2ZM817.5 2H822.5V0H817.5V2ZM827.5 2H832.5V0H827.5V2ZM837.5 2H842.5V0H837.5V2ZM847.5 2H852.5V0H847.5V2ZM857.5 2H862.5V0H857.5V2ZM867.5 2H872.5V0H867.5V2ZM877.5 2H882.5V0H877.5V2ZM887.5 2H892.5V0H887.5V2ZM897.5 2H902.5V0H897.5V2ZM907.5 2H912.5V0H907.5V2ZM917.5 2H922.5V0H917.5V2ZM927.5 2H932.5V0H927.5V2ZM937.5 2H942.5V0H937.5V2ZM947.5 2H952.5V0H947.5V2ZM957.5 2H962.5V0H957.5V2ZM967.5 2H972.5V0H967.5V2ZM977.5 2H982.5V0H977.5V2ZM987.5 2H992.5V0H987.5V2ZM997.5 2H1002.5V0H997.5V2ZM1007.5 2H1012.5V0H1007.5V2ZM1017.5 2H1022.5V0H1017.5V2ZM1027.5 2H1032.5V0H1027.5V2ZM1037.5 2H1042.5V0H1037.5V2ZM1047.5 2H1052.5V0H1047.5V2ZM1057.5 2H1062.5V0H1057.5V2ZM1067.5 2H1072.5V0H1067.5V2ZM1077.5 2H1082.5V0H1077.5V2ZM1087.5 2H1092.5V0H1087.5V2ZM1097.5 2H1102.5V0H1097.5V2ZM1107.5 2H1112.5V0H1107.5V2ZM1117.5 2H1122.5V0H1117.5V2ZM1127.5 2H1132.5V0H1127.5V2ZM1137.5 2H1142.5V0H1137.5V2ZM1147.5 2H1152.5V0H1147.5V2ZM1157.5 2H1160V0H1157.5V2Z" fill="url(#paint0_linear_44_1204)" fill-opacity="0.3" mask="url(#path-1-inside-1_44_1204)"/>
<defs>
<linearGradient id="paint0_linear_44_1204" x1="0" y1="0.5" x2="1160" y2="0.5" gradientUnits="userSpaceOnUse">
<stop stop-color="#FDEB56" stop-opacity="0"/>
<stop offset="0.3" stop-color="#FDEB56"/>
<stop offset="0.7" stop-color="#FDEB56"/>
<stop offset="1" stop-color="#FDEB56" stop-opacity="0"/>
</linearGradient>
</defs>
</svg>
