<svg width="220" height="42" viewBox="0 0 220 42" fill="none" xmlns="http://www.w3.org/2000/svg">
<g id="Logo">
<path id="Vector" d="M14.8279 34.0191C10.5894 38.2576 3.41112 38.2407 1.40641 32.5918C1.01392 31.4858 0.700109 30.3486 0.469301 29.1883C-0.473084 24.4505 0.0105823 19.5398 1.85914 15.077C3.7077 10.6142 6.83811 6.79979 10.8545 4.1161C14.871 1.43241 19.5931 -2.06921e-07 24.4235 0C29.254 2.06921e-07 33.9761 1.43241 37.9924 4.1161C42.0089 6.79979 45.1393 10.6142 46.9879 15.0771C48.8364 19.5398 49.32 24.4505 48.3777 29.1883C48.1469 30.3486 47.8331 31.4858 47.4405 32.5918C45.4358 38.2407 38.2576 38.2576 34.0191 34.0191L27.4764 27.4764C26.8514 26.8514 26.9159 25.8205 27.0884 24.9535C27.1931 24.4265 27.1393 23.8802 26.9337 23.3837C26.728 22.8872 26.3798 22.4629 25.933 22.1644C25.4862 21.8659 24.9609 21.7065 24.4235 21.7065C23.8862 21.7065 23.3609 21.8659 22.9141 22.1644C22.4671 22.4629 22.1189 22.8872 21.9133 23.3837C21.7076 23.8802 21.6538 24.4265 21.7587 24.9535C21.9312 25.8205 21.9956 26.8514 21.3705 27.4764L14.8279 34.0191Z" fill="url(#paint0_linear_319_142)"/>
<path id="Vector_2" d="M68.7173 28.1553H75.2822V32.0241H63.7056V11.4497H68.7173V28.1553Z" fill="#7375CF"/>
<path id="Vector_3" d="M84.2376 32.2586C82.6355 32.2586 81.1896 31.9166 79.8999 31.2328C78.63 30.549 77.6237 29.572 76.8813 28.302C76.1584 27.0319 75.7969 25.547 75.7969 23.847C75.7969 22.1668 76.168 20.6915 76.9105 19.4215C77.6531 18.132 78.6691 17.1453 79.9586 16.4614C81.2482 15.7776 82.6941 15.4357 84.2963 15.4357C85.8984 15.4357 87.3443 15.7776 88.6338 16.4614C89.9234 17.1453 90.9394 18.132 91.6819 19.4215C92.4243 20.6915 92.7956 22.1668 92.7956 23.847C92.7956 25.5274 92.4145 27.0124 91.6526 28.302C90.9102 29.572 89.8844 30.549 88.5752 31.2328C87.2857 31.9166 85.8398 32.2586 84.2376 32.2586ZM84.2376 27.9209C85.195 27.9209 86.0059 27.5693 86.6703 26.8659C87.3541 26.1624 87.696 25.1563 87.696 23.847C87.696 22.538 87.3638 21.5318 86.6995 20.8284C86.0547 20.1249 85.2536 19.7732 84.2963 19.7732C83.3193 19.7732 82.5084 20.1249 81.8636 20.8284C81.2188 21.5122 80.8965 22.5184 80.8965 23.847C80.8965 25.1563 81.2092 26.1624 81.8344 26.8659C82.4792 27.5693 83.2803 27.9209 84.2376 27.9209Z" fill="#7375CF"/>
<path id="Vector_4" d="M100.789 15.4357C101.942 15.4357 102.948 15.6701 103.808 16.1391C104.687 16.6079 105.361 17.2235 105.83 17.9854V15.6701H110.842V31.9947C110.842 33.4992 110.539 34.8573 109.933 36.0685C109.347 37.2996 108.438 38.2765 107.207 38.9994C105.996 39.7224 104.482 40.0839 102.665 40.0839C100.242 40.0839 98.2782 39.5075 96.7736 38.3547C95.2693 37.2213 94.4094 35.6778 94.1945 33.7239H99.1476C99.3039 34.3491 99.6752 34.8377 100.261 35.1894C100.847 35.5606 101.57 35.7462 102.43 35.7462C103.466 35.7462 104.286 35.4433 104.892 34.8377C105.517 34.2515 105.83 33.3039 105.83 31.9947V29.6795C105.341 30.4414 104.667 31.0667 103.808 31.5551C102.948 32.0241 101.942 32.2586 100.789 32.2586C99.4408 32.2586 98.2195 31.9167 97.1254 31.2328C96.0312 30.5294 95.1617 29.5426 94.517 28.2726C93.8918 26.9831 93.5791 25.4982 93.5791 23.8178C93.5791 22.1374 93.8918 20.6623 94.517 19.3923C95.1617 18.1222 96.0312 17.1453 97.1254 16.4614C98.2195 15.7776 99.4408 15.4357 100.789 15.4357ZM105.83 23.847C105.83 22.5966 105.478 21.6099 104.775 20.887C104.091 20.1641 103.251 19.8026 102.254 19.8026C101.258 19.8026 100.408 20.1641 99.7045 20.887C99.0206 21.5904 98.6787 22.5674 98.6787 23.8178C98.6787 25.0683 99.0206 26.0648 99.7045 26.8073C100.408 27.5301 101.258 27.8916 102.254 27.8916C103.251 27.8916 104.091 27.5301 104.775 26.8073C105.478 26.0842 105.83 25.0976 105.83 23.847Z" fill="#7375CF"/>
<path id="Vector_5" d="M121.032 32.2586C119.43 32.2586 117.984 31.9166 116.695 31.2328C115.424 30.549 114.418 29.572 113.676 28.302C112.953 27.0319 112.591 25.547 112.591 23.847C112.591 22.1668 112.962 20.6915 113.705 19.4215C114.448 18.132 115.464 17.1453 116.753 16.4614C118.043 15.7776 119.489 15.4357 121.091 15.4357C122.693 15.4357 124.139 15.7776 125.428 16.4614C126.718 17.1453 127.734 18.132 128.476 19.4215C129.219 20.6915 129.59 22.1668 129.59 23.847C129.59 25.5274 129.209 27.0124 128.447 28.302C127.705 29.572 126.679 30.549 125.37 31.2328C124.08 31.9166 122.634 32.2586 121.032 32.2586ZM121.032 27.9209C121.989 27.9209 122.8 27.5693 123.465 26.8659C124.149 26.1624 124.49 25.1563 124.49 23.847C124.49 22.538 124.158 21.5318 123.494 20.8284C122.849 20.1249 122.048 19.7732 121.091 19.7732C120.114 19.7732 119.303 20.1249 118.658 20.8284C118.013 21.5122 117.691 22.5184 117.691 23.847C117.691 25.1563 118.004 26.1624 118.629 26.8659C119.274 27.5693 120.075 27.9209 121.032 27.9209Z" fill="#7375CF"/>
<path id="Vector_6" d="M133.89 13.9702C133.011 13.9702 132.288 13.7162 131.722 13.2082C131.174 12.6807 130.901 12.0359 130.901 11.2739C130.901 10.4923 131.174 9.84755 131.722 9.33954C132.288 8.81199 133.011 8.54822 133.89 8.54822C134.75 8.54822 135.453 8.81199 136 9.33954C136.567 9.84755 136.85 10.4923 136.85 11.2739C136.85 12.0359 136.567 12.6807 136 13.2082C135.453 13.7162 134.75 13.9702 133.89 13.9702ZM136.381 15.6701V32.0241H131.37V15.6701H136.381Z" fill="#7375CF"/>
<path id="Vector_7" d="M144.146 17.9854C144.634 17.2235 145.308 16.6079 146.168 16.1391C147.028 15.6701 148.035 15.4357 149.187 15.4357C150.536 15.4357 151.756 15.7776 152.851 16.4614C153.945 17.1453 154.805 18.1222 155.429 19.3923C156.074 20.6623 156.397 22.1374 156.397 23.8178C156.397 25.4982 156.074 26.9831 155.429 28.2726C154.805 29.5426 153.945 30.5294 152.851 31.2328C151.756 31.9167 150.536 32.2586 149.187 32.2586C148.053 32.2586 147.048 32.0241 146.168 31.5551C145.308 31.0862 144.634 30.4805 144.146 29.7381V39.82H139.134V15.6701H144.146V17.9854ZM151.298 23.8178C151.298 22.5674 150.946 21.5904 150.242 20.887C149.558 20.1641 148.709 19.8026 147.693 19.8026C146.696 19.8026 145.846 20.1641 145.142 20.887C144.459 21.6099 144.117 22.5966 144.117 23.847C144.117 25.0976 144.459 26.0842 145.142 26.8073C145.846 27.5301 146.696 27.8916 147.693 27.8916C148.689 27.8916 149.539 27.5301 150.242 26.8073C150.946 26.0648 151.298 25.0683 151.298 23.8178Z" fill="#7375CF"/>
<path id="Vector_8" d="M164.8 32.2586C163.374 32.2586 162.103 32.0143 160.989 31.5259C159.876 31.0374 158.996 30.3731 158.352 29.5328C157.708 28.6731 157.346 27.7158 157.268 26.6606H162.221C162.279 27.2272 162.543 27.6864 163.012 28.0381C163.482 28.3898 164.058 28.5657 164.742 28.5657C165.366 28.5657 165.845 28.4485 166.177 28.214C166.529 27.9601 166.705 27.6376 166.705 27.2468C166.705 26.7779 166.461 26.436 165.972 26.2211C165.484 25.9866 164.692 25.7327 163.598 25.459C162.426 25.1855 161.449 24.9022 160.667 24.6091C159.886 24.2966 159.212 23.8178 158.646 23.173C158.078 22.5087 157.796 21.6197 157.796 20.506C157.796 19.5681 158.05 18.7182 158.558 17.9562C159.084 17.1747 159.847 16.5591 160.843 16.1097C161.859 15.6604 163.061 15.4357 164.448 15.4357C166.499 15.4357 168.111 15.9437 169.284 16.9596C170.476 17.9757 171.16 19.3238 171.336 21.0042H166.705C166.627 20.4376 166.373 19.9882 165.943 19.656C165.532 19.3238 164.986 19.1578 164.302 19.1578C163.716 19.1578 163.266 19.275 162.954 19.5095C162.641 19.7244 162.485 20.0273 162.485 20.418C162.485 20.887 162.729 21.2387 163.218 21.4732C163.726 21.7077 164.506 21.9421 165.562 22.1765C166.773 22.4892 167.759 22.8018 168.522 23.1144C169.284 23.4075 169.948 23.8959 170.514 24.5799C171.101 25.2441 171.404 26.1429 171.424 27.2762C171.424 28.2336 171.15 29.0933 170.602 29.8553C170.076 30.5978 169.304 31.184 168.287 31.6138C167.291 32.0437 166.129 32.2586 164.8 32.2586Z" fill="#7375CF"/>
<path id="Vector_9" d="M189.759 15.67V32.024H184.747V29.7966C184.239 30.5195 183.545 31.1057 182.666 31.555C181.806 31.985 180.85 32.1999 179.794 32.1999C178.543 32.1999 177.439 31.9263 176.482 31.3792C175.524 30.8126 174.782 30.0017 174.255 28.9467C173.727 27.8915 173.463 26.6509 173.463 25.2244V15.67H178.445V24.5504C178.445 25.6446 178.729 26.4945 179.296 27.1002C179.862 27.7059 180.624 28.0088 181.582 28.0088C182.559 28.0088 183.331 27.7059 183.897 27.1002C184.463 26.4945 184.747 25.6446 184.747 24.5504V15.67H189.759Z" fill="#7375CF"/>
<path id="Vector_10" d="M213.347 15.4943C215.378 15.4943 216.991 16.1097 218.183 17.3407C219.394 18.5716 220 20.2812 220 22.4695V32.0241H215.018V23.1437C215.018 22.0886 214.734 21.2777 214.168 20.7111C213.62 20.1249 212.859 19.8318 211.881 19.8318C210.905 19.8318 210.133 20.1249 209.566 20.7111C209.02 21.2777 208.746 22.0886 208.746 23.1437V32.0241H203.762V23.1437C203.762 22.0886 203.48 21.2777 202.914 20.7111C202.366 20.1249 201.604 19.8318 200.627 19.8318C199.651 19.8318 198.878 20.1249 198.312 20.7111C197.764 21.2777 197.492 22.0886 197.492 23.1437V32.0241H192.48V15.6701H197.492V17.7217C198 17.0378 198.664 16.5004 199.485 16.1097C200.305 15.6994 201.233 15.4943 202.268 15.4943C203.5 15.4943 204.594 15.758 205.551 16.2856C206.527 16.8131 207.29 17.5654 207.837 18.5423C208.404 17.6435 209.176 16.9108 210.152 16.3442C211.129 15.7776 212.195 15.4943 213.347 15.4943Z" fill="#7375CF"/>
</g>
<defs>
<linearGradient id="paint0_linear_319_142" x1="46.6238" y1="12.2118" x2="3.27214" y2="12.2118" gradientUnits="userSpaceOnUse">
<stop stop-color="#64C2DB"/>
<stop offset="0.510417" stop-color="#7476ED"/>
<stop offset="1" stop-color="#E56F8C"/>
</linearGradient>
</defs>
</svg>
