<svg width="24" height="24" viewBox="0 0 24 24" fill="none" xmlns="http://www.w3.org/2000/svg">
<g id="icons8-twitter (10) 2">
<path id="Vector" d="M22.4004 5.5496C21.6348 5.8896 20.8124 6.1184 19.9492 6.2216C20.8308 5.6936 21.5068 4.8576 21.8252 3.8608C21.0012 4.3496 20.0876 4.7048 19.1148 4.8968C18.3364 4.0672 17.2276 3.5488 16.0004 3.5488C13.6436 3.5488 11.7332 5.46 11.7332 7.816C11.7332 8.1504 11.7716 8.4768 11.8436 8.788C8.29721 8.6104 5.15321 6.9112 3.04761 4.3288C2.68121 4.9592 2.47081 5.692 2.47081 6.4752C2.47081 7.9552 3.22361 9.2616 4.36841 10.0264C3.66921 10.004 3.01081 9.812 2.43561 9.4928C2.43561 9.5112 2.43561 9.528 2.43561 9.5464C2.43561 11.6144 3.90601 13.3392 5.85881 13.7304C5.50121 13.828 5.12361 13.88 4.73401 13.88C4.45961 13.88 4.19161 13.8528 3.93161 13.804C4.47481 15.4992 6.05081 16.7336 7.91801 16.768C6.45801 17.9128 4.61801 18.5952 2.61801 18.5952C2.27401 18.5952 1.93401 18.5752 1.59961 18.5352C3.48841 19.7456 5.73081 20.452 8.14121 20.452C15.9908 20.452 20.282 13.9496 20.282 8.3104C20.282 8.1256 20.278 7.9416 20.27 7.7584C21.1044 7.156 21.8284 6.4048 22.4004 5.5496Z" fill="#EDDFEB" fill-opacity="0.7"/>
</g>
</svg>
